<svg width="280" height="87" viewBox="0 0 280 87" fill="none" xmlns="http://www.w3.org/2000/svg">
<g clip-path="url(#clip0_103_2)">
<path d="M33.7471 49.6807C27.2637 54.6155 16.5148 64.1767 14.4674 72.8125C13.9556 74.6631 15.3205 76.3594 17.1973 76.822L24.5338 78.5184C25.3869 73.892 28.2874 60.6298 37.5007 50.7602C36.1358 50.4518 34.9415 49.9892 33.7471 49.6807Z" fill="#111111"/>
<path d="M27.9462 79.4436C27.6049 81.2942 28.9699 82.8363 30.8467 83.2989L48.2496 86.8458C48.5908 86.8458 48.7614 87 49.1027 87C49.9558 87 50.8088 86.6916 51.4913 86.2289C52.3444 85.6121 52.8563 84.5326 52.8563 83.4531C52.8563 73.1209 60.534 61.8635 64.6288 56.6203C56.4392 55.3866 47.7377 53.536 41.2543 51.8397C31.6997 61.4008 28.7993 74.9715 27.9462 79.4436Z" fill="#111111"/>
<path d="M66.6762 36.5727L62.0696 39.9654C68.3824 39.8112 78.4488 38.2691 84.0792 37.3438C85.4441 35.0306 86.6384 31.1753 85.9559 25.6237C84.9322 13.9036 56.6098 12.9783 53.3681 12.9783H53.1975C50.6382 13.1325 28.7992 14.212 21.9746 24.39C16.6854 32.409 23.6807 40.7365 31.3585 45.517C31.6997 45.6712 31.8704 45.8254 32.2116 45.9797C35.1121 46.9049 60.534 54.4613 76.572 54.4613C77.4251 54.4613 78.4488 54.4613 79.3019 54.3071C80.3256 54.3071 81.3493 53.8445 81.8611 53.0734C82.5436 52.3023 82.8848 51.3771 82.7142 50.4518L81.8611 40.7365C75.7189 41.8159 66.6762 43.0496 60.7046 43.0496C54.2212 43.0496 47.3965 42.2786 42.9605 39.5028C36.477 35.4933 33.2353 31.0211 34.259 27.32C34.7708 25.6237 36.477 22.5395 43.6429 21.6142C50.4676 20.8431 57.4629 21.46 62.0696 22.231C65.4819 22.6937 68.2118 25.0069 69.4061 27.9369C70.4298 30.7127 69.7473 33.6427 67.6999 35.8017C67.3587 36.1101 67.0175 36.4185 66.6762 36.5727Z" fill="#111111"/>
<path d="M151.776 51.2777C151.776 57.9081 149.964 62.3933 146.339 64.7335C144.743 65.7865 142.909 66.313 140.838 66.313C139.716 66.313 138.809 66.2155 138.119 66.0205C137.299 65.8645 136.49 65.5428 135.692 65.0552C134.893 64.5677 134.192 64.0314 133.588 63.4464C131.387 65.2405 128.518 66.1375 124.98 66.1375C120.88 66.1375 117.655 65.0357 115.303 62.8321C112.951 60.6285 111.775 57.6156 111.775 53.7934C111.775 51.3753 112.325 49.2399 113.426 47.3873C114.526 45.5347 116.08 44.1014 118.086 43.0873C120.093 42.0733 122.412 41.5662 125.044 41.5662C127.202 41.5662 129.1 41.9562 130.74 42.7363V41.8002H138.378V56.4845C138.378 57.2646 138.518 58.0056 138.799 58.7076C139.079 59.4097 139.521 59.8582 140.126 60.0532C141.42 60.2482 142.402 59.5852 143.071 58.0641C143.739 56.543 144.074 54.2809 144.074 51.2777C144.074 46.5975 142.607 43.2238 139.672 41.1567C136.522 38.8556 131.905 37.705 125.821 37.705C121.937 37.705 118.669 38.4461 116.015 39.9281C113.361 41.4102 111.387 43.3506 110.092 45.7492C108.798 48.1478 108.151 50.6732 108.151 53.3254C108.151 57.8496 109.424 61.7303 111.969 64.9675C114.515 68.2046 118.982 69.8232 125.368 69.8232C127.741 69.8232 129.759 69.6477 131.42 69.2967C133.081 68.9457 134.343 68.5654 135.206 68.1559C136.069 67.7464 136.566 67.4636 136.695 67.3076L141.55 71.1103C138.227 74.1915 132.876 75.732 125.497 75.732C120.233 75.732 115.724 74.8447 111.969 73.0702C108.215 71.2956 105.367 68.7312 103.426 65.377C101.484 62.0228 100.513 58.0056 100.513 53.3254C100.513 50.4392 101.074 47.6896 102.196 45.0764C103.318 42.4633 104.914 40.1427 106.985 38.1145C109.316 35.9304 112.088 34.2631 115.303 33.1125C118.518 31.962 122.024 31.3867 125.821 31.3867C133.847 31.3867 140.104 33.0248 144.592 36.3009C149.381 39.8501 151.776 44.8424 151.776 51.2777ZM130.74 52.2723C130.654 50.9072 130.233 49.7762 129.478 48.8791C128.723 47.9821 127.245 47.5335 125.044 47.5335C123.146 47.5335 121.797 48.1771 120.999 49.4642C120.201 50.7512 119.801 52.1943 119.801 53.7934C119.801 56.0165 120.319 57.6058 121.355 58.5614C122.39 59.5169 123.599 59.9947 124.98 59.9947C126.619 59.9947 127.979 59.5949 129.057 58.7954C130.136 57.9959 130.697 56.7185 130.74 54.9634V52.2723ZM159.414 25.4194H169.123V69.6477H159.414V25.4194ZM178.444 25.4194H188.153V69.6477H178.444V25.4194ZM206.47 32.703C205.435 33.6196 204.183 34.0778 202.716 34.0778C201.206 34.0778 199.922 33.6196 198.865 32.703C197.808 31.7865 197.279 30.6651 197.279 29.3391C197.279 28.052 197.808 26.9502 198.865 26.0337C199.922 25.1171 201.206 24.6588 202.716 24.6588C204.183 24.6588 205.435 25.1171 206.47 26.0337C207.506 26.9502 208.024 28.052 208.024 29.3391C208.024 30.6651 207.506 31.7865 206.47 32.703ZM197.862 37.5295H207.571V69.6477H197.862V37.5295ZM246.957 40.4547C249.179 42.8338 250.29 46.227 250.29 50.6342V69.6477H240.387V50.6342C240.387 46.305 238.1 44.1404 233.526 44.1404C231.757 44.1404 230.16 44.7741 228.736 46.0417C227.312 47.3093 226.644 49.5032 226.73 52.6233V69.6477H217.086V37.471H226.73V40.3377C227.895 39.2846 229.362 38.4461 231.131 37.822C232.901 37.198 234.605 36.886 236.245 36.886C241.164 36.886 244.735 38.0755 246.957 40.4547ZM280 69.6477H269.708V42.2098L263.236 47.592L256.181 40.9812L273.333 26.8234H280V69.6477Z" fill="#111111"/>
</g>
<defs>
<clipPath id="clip0_103_2">
<rect width="280" height="87" fill="white"/>
</clipPath>
</defs>
</svg>
