<svg width="64" height="54" viewBox="0 0 64 54" fill="none" xmlns="http://www.w3.org/2000/svg">
<path d="M17.2832 26.7281C11.5036 30.3218 1.92178 37.2846 0.0966703 43.5736C-0.359608 44.9212 0.857134 46.1565 2.53016 46.4935L9.07015 47.7288C9.83061 44.3597 12.4162 34.7016 20.6292 27.5142C19.4125 27.2896 18.3478 26.9527 17.2832 26.7281Z" fill="#111111"/>
<path d="M12.112 48.4026C11.8078 49.7502 13.0246 50.8733 14.6976 51.2102L30.211 53.7931C30.5152 53.7931 30.6673 53.9054 30.9715 53.9054C31.732 53.9054 32.4924 53.6808 33.1008 53.3439C33.8613 52.8947 34.3176 52.1086 34.3176 51.3225C34.3176 43.7982 41.1617 35.6 44.812 31.7817C37.5115 30.8833 29.7548 29.5357 23.9752 28.3004C15.458 35.2631 12.8725 45.1458 12.112 48.4026Z" fill="#111111"/>
<path d="M46.6371 17.1824L42.5306 19.653C48.158 19.5407 57.1315 18.4177 62.1506 17.7439C63.3673 16.0593 64.4319 13.2518 63.8236 9.20885C62.911 0.673818 37.6636 0 34.7738 0H34.6217C32.3404 0.112303 12.8725 0.898424 6.78876 8.31042C2.07388 14.1502 8.30969 20.2145 15.1539 23.6959C15.458 23.8082 15.6101 23.9205 15.9143 24.0328C18.4999 24.7067 41.1617 30.2095 55.4585 30.2095C56.2189 30.2095 57.1315 30.2095 57.892 30.0972C58.8045 30.0972 59.7171 29.7603 60.1733 29.1988C60.7817 28.6373 61.0859 27.9635 60.9338 27.2896L60.1733 20.2145C54.698 21.0007 46.6371 21.8991 41.3138 21.8991C35.5343 21.8991 29.4506 21.3376 25.4962 19.3161C19.7167 16.3962 16.8269 13.1395 17.7394 10.4442C18.1957 9.20885 19.7167 6.96279 26.1045 6.28897C32.1883 5.72745 38.4241 6.17667 42.5306 6.73818C45.5724 7.07509 48.0059 8.75964 49.0706 10.8934C49.9831 12.9148 49.3748 15.0486 47.5496 16.6208C47.2455 16.8455 46.9413 17.0701 46.6371 17.1824Z" fill="#111111"/>
</svg>
