<svg width="24" height="10" viewBox="0 0 390 134.0696369100517" class="css-1j8o68f"><defs id="SvgjsDefs1537"></defs><g id="SvgjsG1538" featurekey="v37d4h-0" transform="matrix(2.376450957822764,0,0,2.376450957822764,8.268794721520079,15.247098084354473)" fill="#111111"><g xmlns="http://www.w3.org/2000/svg"><g><path d="M16.3,25.8c-3.8,3.2-10.1,9.4-11.3,15c-0.3,1.2,0.5,2.3,1.6,2.6l4.3,1.1c0.5-3,2.2-11.6,7.6-18C17.7,26.3,17,26,16.3,25.8    z"></path><path d="M12.9,45.1c-0.2,1.2,0.6,2.2,1.7,2.5l10.2,2.3c0.2,0,0.3,0.1,0.5,0.1c0.5,0,1-0.2,1.4-0.5c0.5-0.4,0.8-1.1,0.8-1.8    C27.5,41,32,33.7,34.4,30.3c-4.8-0.8-9.9-2-13.7-3.1C15.1,33.4,13.4,42.2,12.9,45.1z"></path><path d="M35.6,17.3l-2.7,2.2c3.7-0.1,9.6-1.1,12.9-1.7c0.8-1.5,1.5-4,1.1-7.6C46.3,2.6,29.7,2,27.8,2h-0.1    C26.2,2.1,13.4,2.8,9.4,9.4c-3.1,5.2,1,10.6,5.5,13.7c0.2,0.1,0.3,0.2,0.5,0.3c1.7,0.6,16.6,5.5,26,5.5c0.5,0,1.1,0,1.6-0.1    c0.6,0,1.2-0.3,1.5-0.8c0.4-0.5,0.6-1.1,0.5-1.7L44.5,20c-3.6,0.7-8.9,1.5-12.4,1.5c-3.8,0-7.8-0.5-10.4-2.3    c-3.8-2.6-5.7-5.5-5.1-7.9c0.3-1.1,1.3-3.1,5.5-3.7c4-0.5,8.1-0.1,10.8,0.4c2,0.3,3.6,1.8,4.3,3.7c0.6,1.8,0.2,3.7-1,5.1    C36,17,35.8,17.2,35.6,17.3z"></path></g></g></g><g id="SvgjsG1539" featurekey="UxBHKT-0" transform="matrix(4.507753720207133,0,0,4.507753720207133,136.30363338381423,17.174178328514518)" fill="#111111"><path d="M16.66 13.719999999999999 q0 3.4 -1.68 4.6 q-0.74 0.54 -1.7 0.54 q-0.52 0 -0.84 -0.1 q-0.38 -0.08 -0.75 -0.33 t-0.65 -0.55 q-1.02 0.92 -2.66 0.92 q-1.9 0 -2.99 -1.13 t-1.09 -3.09 q0 -1.24 0.51 -2.19 t1.44 -1.47 t2.15 -0.52 q1 0 1.76 0.4 l0 -0.32 l2.36 0 l0 5.02 q0 0.4 0.13 0.76 t0.41 0.46 q0.6 0.1 0.91 -0.68 t0.31 -2.32 q0 -2.4 -1.36 -3.46 q-1.46 -1.18 -4.28 -1.18 q-1.8 0 -3.03 0.76 t-1.83 1.99 t-0.6 2.59 q0 2.32 1.18 3.98 t4.14 1.66 q1.1 0 1.87 -0.18 t1.17 -0.39 t0.46 -0.29 l1.5 1.3 q-1.54 1.58 -4.96 1.58 q-2.44 0 -4.18 -0.91 t-2.64 -2.63 t-0.9 -4.12 q0 -1.48 0.52 -2.82 t1.48 -2.38 q1.08 -1.12 2.57 -1.71 t3.25 -0.59 q3.72 0 5.8 1.68 q2.22 1.82 2.22 5.12 z M10.16 14.059999999999999 q-0.04 -0.7 -0.39 -1.16 t-1.37 -0.46 q-0.88 0 -1.25 0.66 t-0.37 1.48 q0 1.14 0.48 1.63 t1.12 0.49 q0.76 0 1.26 -0.41 t0.52 -1.31 l0 -0.92 z M19.02 4.880000000000001 l3 0 l0 15.12 l-3 0 l0 -15.12 z M24.9 4.880000000000001 l3 0 l0 15.12 l-3 0 l0 -15.12 z M33.56 7.369999999999999 q-0.48 0.47 -1.16 0.47 q-0.7 0 -1.19 -0.47 t-0.49 -1.15 q0 -0.66 0.49 -1.13 t1.19 -0.47 q0.68 0 1.16 0.47 t0.48 1.13 q0 0.68 -0.48 1.15 z M30.9 9.02 l3 0 l0 10.98 l-3 0 l0 -10.98 z M46.06999999999999 10.02 q1.03 1.22 1.03 3.48 l0 6.5 l-3.06 0 l0 -6.5 q0 -2.22 -2.12 -2.22 q-0.82 0 -1.48 0.65 t-0.62 2.25 l0 5.82 l-2.98 0 l0 -11 l2.98 0 l0 0.98 q0.54 -0.54 1.36 -0.86 t1.58 -0.32 q2.28 0 3.31 1.22 z M56.28 20 l-3.18 0 l0 -9.38 l-2 1.84 l-2.18 -2.26 l5.3 -4.84 l2.06 0 l0 14.64 z"></path></g></svg>